<svg width="190" height="480" viewBox="0 0 190 480" fill="none"
                xmlns="http://www.w3.org/2000/svg">
                <path
                    d="M154 236L151.5 236L154 236ZM58.875 278.5C60.2557 278.5 61.375 277.381 61.375 276C61.375 274.619 60.2557 273.5 58.875 273.5L58.875 278.5ZM74.625 273.5C73.2443 273.5 72.125 274.619 72.125 276C72.125 277.381 73.2443 278.5 74.625 278.5L74.625 273.5ZM90.375 278.5C91.7557 278.5 92.875 277.381 92.875 276C92.875 274.619 91.7557 273.5 90.375 273.5L90.375 278.5ZM106.125 273.5C104.744 273.5 103.625 274.619 103.625 276C103.625 277.381 104.744 278.5 106.125 278.5L106.125 273.5ZM122.292 277.691C123.646 277.423 124.527 276.108 124.259 274.753C123.991 273.399 122.676 272.518 121.321 272.786L122.292 277.691ZM134.834 267.185C133.687 267.953 133.379 269.506 134.147 270.653C134.915 271.801 136.468 272.108 137.615 271.34L134.834 267.185ZM149.34 259.615C150.108 258.468 149.801 256.915 148.653 256.147C147.506 255.379 145.953 255.686 145.185 256.834L149.34 259.615ZM150.786 243.321C150.518 244.676 151.399 245.991 152.753 246.259C154.108 246.527 155.423 245.646 155.691 244.292L150.786 243.321ZM156.5 228.625C156.5 227.244 155.381 226.125 154 226.125C152.619 226.125 151.5 227.244 151.5 228.625L156.5 228.625ZM151.5 213.875C151.5 215.256 152.619 216.375 154 216.375C155.381 216.375 156.5 215.256 156.5 213.875L151.5 213.875ZM156.5 199.125C156.5 197.744 155.381 196.625 154 196.625C152.619 196.625 151.5 197.744 151.5 199.125L156.5 199.125ZM151.5 184.375C151.5 185.756 152.619 186.875 154 186.875C155.381 186.875 156.5 185.756 156.5 184.375L151.5 184.375ZM156.5 169.625C156.5 168.244 155.381 167.125 154 167.125C152.619 167.125 151.5 168.244 151.5 169.625L156.5 169.625ZM151.5 154.875C151.5 156.256 152.619 157.375 154 157.375C155.381 157.375 156.5 156.256 156.5 154.875L151.5 154.875ZM156.5 140.125C156.5 138.744 155.381 137.625 154 137.625C152.619 137.625 151.5 138.744 151.5 140.125L156.5 140.125ZM151.5 125.375C151.5 126.756 152.619 127.875 154 127.875C155.381 127.875 156.5 126.756 156.5 125.375L151.5 125.375ZM156.5 110.625C156.5 109.244 155.381 108.125 154 108.125C152.619 108.125 151.5 109.244 151.5 110.625L156.5 110.625ZM151.5 95.875C151.5 97.2557 152.619 98.375 154 98.375C155.381 98.375 156.5 97.2557 156.5 95.875L151.5 95.875ZM156.5 81.125C156.5 79.7443 155.381 78.625 154 78.625C152.619 78.625 151.5 79.7443 151.5 81.125L156.5 81.125ZM151.5 66.375C151.5 67.7557 152.619 68.875 154 68.875C155.381 68.875 156.5 67.7557 156.5 66.375L151.5 66.375ZM156.5 51.625C156.5 50.2443 155.381 49.125 154 49.125C152.619 49.125 151.5 50.2443 151.5 51.625L156.5 51.625ZM151.5 36.875C151.5 38.2557 152.619 39.375 154 39.375C155.381 39.375 156.5 38.2557 156.5 36.875L151.5 36.875ZM156.5 22.125C156.5 20.7443 155.381 19.625 154 19.625C152.619 19.625 151.5 20.7443 151.5 22.125L156.5 22.125ZM151.5 7.375C151.5 8.7557 152.619 9.875 154 9.875C155.381 9.875 156.5 8.7557 156.5 7.375L151.5 7.375ZM51 278.5L58.875 278.5L58.875 273.5L51 273.5L51 278.5ZM74.625 278.5L90.375 278.5L90.375 273.5L74.625 273.5L74.625 278.5ZM106.125 278.5L114 278.5L114 273.5L106.125 273.5L106.125 278.5ZM114 278.5C116.835 278.5 119.608 278.222 122.292 277.691L121.321 272.786C118.955 273.254 116.508 273.5 114 273.5L114 278.5ZM137.615 271.34C142.249 268.238 146.238 264.249 149.34 259.615L145.185 256.834C142.447 260.924 138.924 264.447 134.834 267.185L137.615 271.34ZM155.691 244.292C156.222 241.608 156.5 238.835 156.5 236L151.5 236C151.5 238.508 151.254 240.955 150.786 243.321L155.691 244.292ZM156.5 236L156.5 228.625L151.5 228.625L151.5 236L156.5 236ZM156.5 213.875L156.5 199.125L151.5 199.125L151.5 213.875L156.5 213.875ZM156.5 184.375L156.5 169.625L151.5 169.625L151.5 184.375L156.5 184.375ZM156.5 154.875L156.5 140.125L151.5 140.125L151.5 154.875L156.5 154.875ZM156.5 125.375L156.5 110.625L151.5 110.625L151.5 125.375L156.5 125.375ZM156.5 95.875L156.5 81.125L151.5 81.125L151.5 95.875L156.5 95.875ZM156.5 66.375L156.5 51.625L151.5 51.625L151.5 66.375L156.5 66.375ZM156.5 36.875L156.5 22.125L151.5 22.125L151.5 36.875L156.5 36.875ZM156.5 7.375L156.5 -4.61155e-06L151.5 -4.393e-06L151.5 7.375L156.5 7.375Z"
                    fill="#00004F" />
                <g filter="url(#filter0_bddddd_47_9)">
                    <circle cx="95" cy="276" r="12" fill="url(#paint0_linear_47_9)" />
                    <circle cx="95" cy="276" r="12" stroke="white" stroke-width="5" />
                </g>
                <defs>
                    <filter id="filter0_bddddd_47_9" x="0.5" y="201.5" width="189" height="278"
                        filterUnits="userSpaceOnUse" color-interpolation-filters="sRGB">
                        <feFlood flood-opacity="0" result="BackgroundImageFix" />
                        <feGaussianBlur in="BackgroundImage" stdDeviation="30" />
                        <feComposite in2="SourceAlpha" operator="in" result="effect1_backgroundBlur_47_9" />
                        <feColorMatrix in="SourceAlpha" type="matrix" values="0 0 0 0 0 0 0 0 0 0 0 0 0 0 0 0 0 0 127 0"
                            result="hardAlpha" />
                        <feOffset dy="13.6485" />
                        <feGaussianBlur stdDeviation="5.00862" />
                        <feColorMatrix type="matrix"
                            values="0 0 0 0 0.369531 0 0 0 0 0.396406 0 0 0 0 0.5375 0 0 0 0.155 0" />
                        <feBlend mode="normal" in2="effect1_backgroundBlur_47_9" result="effect2_dropShadow_47_9" />
                        <feColorMatrix in="SourceAlpha" type="matrix" values="0 0 0 0 0 0 0 0 0 0 0 0 0 0 0 0 0 0 127 0"
                            result="hardAlpha" />
                        <feOffset dy="24.3466" />
                        <feGaussianBlur stdDeviation="8.93452" />
                        <feColorMatrix type="matrix"
                            values="0 0 0 0 0.409635 0 0 0 0 0.587469 0 0 0 0 0.6875 0 0 0 0.1 0" />
                        <feBlend mode="normal" in2="effect2_dropShadow_47_9" result="effect3_dropShadow_47_9" />
                        <feColorMatrix in="SourceAlpha" type="matrix" values="0 0 0 0 0 0 0 0 0 0 0 0 0 0 0 0 0 0 127 0"
                            result="hardAlpha" />
                        <feOffset dy="45.5376" />
                        <feGaussianBlur stdDeviation="16.711" />
                        <feColorMatrix type="matrix"
                            values="0 0 0 0 0.593437 0 0 0 0 0.665213 0 0 0 0 0.675 0 0 0 0.222845 0" />
                        <feBlend mode="normal" in2="effect3_dropShadow_47_9" result="effect4_dropShadow_47_9" />
                        <feColorMatrix in="SourceAlpha" type="matrix" values="0 0 0 0 0 0 0 0 0 0 0 0 0 0 0 0 0 0 127 0"
                            result="hardAlpha" />
                        <feOffset dy="109" />
                        <feGaussianBlur stdDeviation="40" />
                        <feColorMatrix type="matrix"
                            values="0 0 0 0 0.673142 0 0 0 0 0.744303 0 0 0 0 0.795833 0 0 0 0.21 0" />
                        <feBlend mode="normal" in2="effect4_dropShadow_47_9" result="effect5_dropShadow_47_9" />
                        <feColorMatrix in="SourceAlpha" type="matrix" values="0 0 0 0 0 0 0 0 0 0 0 0 0 0 0 0 0 0 127 0"
                            result="hardAlpha" />
                        <feOffset dy="4" />
                        <feGaussianBlur stdDeviation="2" />
                        <feComposite in2="hardAlpha" operator="out" />
                        <feColorMatrix type="matrix"
                            values="0 0 0 0 0.312813 0 0 0 0 0.394556 0 0 0 0 0.4125 0 0 0 0.15 0" />
                        <feBlend mode="normal" in2="effect5_dropShadow_47_9" result="effect6_dropShadow_47_9" />
                        <feBlend mode="normal" in="SourceGraphic" in2="effect6_dropShadow_47_9" result="shape" />
                    </filter>
                    <linearGradient id="paint0_linear_47_9" x1="94" y1="285" x2="98" y2="251.5"
                        gradientUnits="userSpaceOnUse">
                        <stop stop-color="#232133" />
                        <stop offset="0.528223" stop-color="#3A3753" />
                    </linearGradient>
                </defs>
            </svg>