<svg width="190" height="295" viewBox="0 0 190 295" fill="none" xmlns="http://www.w3.org/2000/svg">
    <path d="M154 59L151.5 59L154 59ZM58.875 16.5C60.2557 16.5 61.375 17.6193 61.375 19C61.375 20.3807 60.2557 21.5 58.875 21.5L58.875 16.5ZM74.625 21.5C73.2443 21.5 72.125 20.3807 72.125 19C72.125 17.6193 73.2443 16.5 74.625 16.5L74.625 21.5ZM90.375 16.5C91.7557 16.5 92.875 17.6193 92.875 19C92.875 20.3807 91.7557 21.5 90.375 21.5L90.375 16.5ZM106.125 21.5C104.744 21.5 103.625 20.3807 103.625 19C103.625 17.6193 104.744 16.5 106.125 16.5L106.125 21.5ZM122.292 17.3089C123.646 17.5768 124.527 18.8921 124.259 20.2465C123.991 21.601 122.676 22.4818 121.321 22.2138L122.292 17.3089ZM134.834 27.8148C133.687 27.0467 133.379 25.4939 134.147 24.3466C134.915 23.1993 136.468 22.8918 137.615 23.66L134.834 27.8148ZM149.34 35.3846C150.108 36.5319 149.801 38.0847 148.653 38.8528C147.506 39.6209 145.953 39.3135 145.185 38.1662L149.34 35.3846ZM150.786 51.6787C150.518 50.3242 151.399 49.009 152.753 48.7411C154.108 48.4731 155.423 49.3539 155.691 50.7083L150.786 51.6787ZM156.5 66.375C156.5 67.7557 155.381 68.875 154 68.875C152.619 68.875 151.5 67.7557 151.5 66.375L156.5 66.375ZM151.5 81.125C151.5 79.7443 152.619 78.625 154 78.625C155.381 78.625 156.5 79.7443 156.5 81.125L151.5 81.125ZM156.5 95.875C156.5 97.2557 155.381 98.375 154 98.375C152.619 98.375 151.5 97.2557 151.5 95.875L156.5 95.875ZM151.5 110.625C151.5 109.244 152.619 108.125 154 108.125C155.381 108.125 156.5 109.244 156.5 110.625L151.5 110.625ZM156.5 125.375C156.5 126.756 155.381 127.875 154 127.875C152.619 127.875 151.5 126.756 151.5 125.375L156.5 125.375ZM151.5 140.125C151.5 138.744 152.619 137.625 154 137.625C155.381 137.625 156.5 138.744 156.5 140.125L151.5 140.125ZM156.5 154.875C156.5 156.256 155.381 157.375 154 157.375C152.619 157.375 151.5 156.256 151.5 154.875L156.5 154.875ZM151.5 169.625C151.5 168.244 152.619 167.125 154 167.125C155.381 167.125 156.5 168.244 156.5 169.625L151.5 169.625ZM156.5 184.375C156.5 185.756 155.381 186.875 154 186.875C152.619 186.875 151.5 185.756 151.5 184.375L156.5 184.375ZM151.5 199.125C151.5 197.744 152.619 196.625 154 196.625C155.381 196.625 156.5 197.744 156.5 199.125L151.5 199.125ZM156.5 213.875C156.5 215.256 155.381 216.375 154 216.375C152.619 216.375 151.5 215.256 151.5 213.875L156.5 213.875ZM151.5 228.625C151.5 227.244 152.619 226.125 154 226.125C155.381 226.125 156.5 227.244 156.5 228.625L151.5 228.625ZM156.5 243.375C156.5 244.756 155.381 245.875 154 245.875C152.619 245.875 151.5 244.756 151.5 243.375L156.5 243.375ZM151.5 258.125C151.5 256.744 152.619 255.625 154 255.625C155.381 255.625 156.5 256.744 156.5 258.125L151.5 258.125ZM156.5 272.875C156.5 274.256 155.381 275.375 154 275.375C152.619 275.375 151.5 274.256 151.5 272.875L156.5 272.875ZM151.5 287.625C151.5 286.244 152.619 285.125 154 285.125C155.381 285.125 156.5 286.244 156.5 287.625L151.5 287.625ZM51 16.5L58.875 16.5L58.875 21.5L51 21.5L51 16.5ZM74.625 16.5L90.375 16.5L90.375 21.5L74.625 21.5L74.625 16.5ZM106.125 16.5L114 16.5L114 21.5L106.125 21.5L106.125 16.5ZM114 16.5C116.835 16.5 119.608 16.778 122.292 17.3089L121.321 22.2138C118.955 21.7458 116.508 21.5 114 21.5L114 16.5ZM137.615 23.66C142.249 26.7621 146.238 30.751 149.34 35.3846L145.185 38.1662C142.447 34.0757 138.924 30.5533 134.834 27.8148L137.615 23.66ZM155.691 50.7083C156.222 53.3921 156.5 56.1648 156.5 59L151.5 59C151.5 56.4923 151.254 54.0446 150.786 51.6787L155.691 50.7083ZM156.5 59L156.5 66.375L151.5 66.375L151.5 59L156.5 59ZM156.5 81.125L156.5 95.875L151.5 95.875L151.5 81.125L156.5 81.125ZM156.5 110.625L156.5 125.375L151.5 125.375L151.5 110.625L156.5 110.625ZM156.5 140.125L156.5 154.875L151.5 154.875L151.5 140.125L156.5 140.125ZM156.5 169.625L156.5 184.375L151.5 184.375L151.5 169.625L156.5 169.625ZM156.5 199.125L156.5 213.875L151.5 213.875L151.5 199.125L156.5 199.125ZM156.5 228.625L156.5 243.375L151.5 243.375L151.5 228.625L156.5 228.625ZM156.5 258.125L156.5 272.875L151.5 272.875L151.5 258.125L156.5 258.125ZM156.5 287.625L156.5 295L151.5 295L151.5 287.625L156.5 287.625Z" fill="#00004F" />
    <defs>
        <filter id="filter0_bddddd_47_9" x="0.5" y="-59.5" width="189" height="278" filterUnits="userSpaceOnUse" color-interpolation-filters="sRGB">
            <feFlood flood-opacity="0" result="BackgroundImageFix" />
            <feGaussianBlur in="BackgroundImage" stdDeviation="30" />
            <feComposite in2="SourceAlpha" operator="in" result="effect1_backgroundBlur_47_9" />
            <feColorMatrix in="SourceAlpha" type="matrix" values="0 0 0 0 0 0 0 0 0 0 0 0 0 0 0 0 0 0 127 0" result="hardAlpha" />
            <feOffset dy="13.6485" />
            <feGaussianBlur stdDeviation="5.00862" />
            <feColorMatrix type="matrix" values="0 0 0 0 0.369531 0 0 0 0 0.396406 0 0 0 0 0.5375 0 0 0 0.155 0" />
            <feBlend mode="normal" in2="effect1_backgroundBlur_47_9" result="effect2_dropShadow_47_9" />
            <feColorMatrix in="SourceAlpha" type="matrix" values="0 0 0 0 0 0 0 0 0 0 0 0 0 0 0 0 0 0 127 0" result="hardAlpha" />
            <feOffset dy="24.3466" />
            <feGaussianBlur stdDeviation="8.93452" />
            <feColorMatrix type="matrix" values="0 0 0 0 0.409635 0 0 0 0 0.587469 0 0 0 0 0.6875 0 0 0 0.1 0" />
            <feBlend mode="normal" in2="effect2_dropShadow_47_9" result="effect3_dropShadow_47_9" />
            <feColorMatrix in="SourceAlpha" type="matrix" values="0 0 0 0 0 0 0 0 0 0 0 0 0 0 0 0 0 0 127 0" result="hardAlpha" />
            <feOffset dy="45.5376" />
            <feGaussianBlur stdDeviation="16.711" />
            <feColorMatrix type="matrix" values="0 0 0 0 0.593437 0 0 0 0 0.665213 0 0 0 0 0.675 0 0 0 0.222845 0" />
            <feBlend mode="normal" in2="effect3_dropShadow_47_9" result="effect4_dropShadow_47_9" />
            <feColorMatrix in="SourceAlpha" type="matrix" values="0 0 0 0 0 0 0 0 0 0 0 0 0 0 0 0 0 0 127 0" result="hardAlpha" />
            <feOffset dy="109" />
            <feGaussianBlur stdDeviation="40" />
            <feColorMatrix type="matrix" values="0 0 0 0 0.673142 0 0 0 0 0.744303 0 0 0 0 0.795833 0 0 0 0.21 0" />
            <feBlend mode="normal" in2="effect4_dropShadow_47_9" result="effect5_dropShadow_47_9" />
            <feColorMatrix in="SourceAlpha" type="matrix" values="0 0 0 0 0 0 0 0 0 0 0 0 0 0 0 0 0 0 127 0" result="hardAlpha" />
            <feOffset dy="4" />
            <feGaussianBlur stdDeviation="2" />
            <feComposite in2="hardAlpha" operator="out" />
            <feColorMatrix type="matrix" values="0 0 0 0 0.312813 0 0 0 0 0.394556 0 0 0 0 0.4125 0 0 0 0.15 0" />
            <feBlend mode="normal" in2="effect5_dropShadow_47_9" result="effect6_dropShadow_47_9" />
            <feBlend mode="normal" in="SourceGraphic" in2="effect6_dropShadow_47_9" result="shape" />
        </filter>
        <linearGradient id="paint0_linear_47_9" x1="94" y1="24" x2="98" y2="-9.5" gradientUnits="userSpaceOnUse">
            <stop stop-color="#232133" />
            <stop offset="0.528223" stop-color="#3A3753" />
        </linearGradient>
    </defs>
</svg>