<svg width="19" height="16" viewBox="0 0 19 16" fill="none" xmlns="http://www.w3.org/2000/svg">
    <path d="M4.941 9.16876L6.16963 5.05305C6.51137 3.92812 7.53659 3.1079 8.74691 3.1079C9.9552 3.1079 10.9764 3.91978 11.3222 5.04053L12.5691 9.14997L14.8067 1.62191C15.0406 0.866392 15.7302 0.31958 16.5459 0.31958C17.5528 0.31958 18.3726 1.15858 18.3726 2.19168C18.3726 2.3503 18.3522 2.50474 18.3156 2.65292L14.9999 13.7749C14.6948 14.8602 13.7204 15.6533 12.565 15.6533C11.4117 15.6533 10.4393 14.8623 10.1322 13.7791L8.75302 9.16667L7.36979 13.7958C7.05653 14.8706 6.08827 15.6533 4.941 15.6533C3.78153 15.6533 2.79903 14.8518 2.50001 13.7582L0.730292 7.82468C0.67537 7.64937 0.648926 7.46362 0.648926 7.26952C0.648926 6.23433 1.46666 5.39742 2.47357 5.39742C3.29944 5.39742 3.99512 5.95884 4.22091 6.72897L4.941 9.16876Z" fill="#00C3FF"/>
    </svg>
    